<?xml version="1.0" encoding="UTF-8"?>
<svg version="1.1" xmlns="http://www.w3.org/2000/svg" width="512" height="512">
<path d="M0 0 C7.54723305 4.42333485 12.46968476 9.93889389 15.24609375 18.31640625 C15.86908541 21.98926751 16.16824604 25.59387043 16.24609375 29.31640625 C24.14555986 26.48256361 31.89230429 23.5743053 39.43359375 19.87890625 C63.22820846 8.3903094 90.0522449 2.86595149 116.37109375 2.94140625 C117.45026566 2.94222198 117.45026566 2.94222198 118.55123901 2.9430542 C146.50555458 3.0398047 170.23355935 10.83039301 192.24609375 28.31640625 C193.30957031 29.12851563 193.30957031 29.12851563 194.39453125 29.95703125 C211.1334676 43.48482471 223.34633822 66.12250325 228.87182617 86.63989258 C230.65793724 93.12834191 233.92555297 96.73120339 238.80859375 101.25390625 C239.49373047 101.91197266 240.17886719 102.57003906 240.88476562 103.24804688 C242.14628115 104.45756667 243.41389712 105.66078183 244.68969727 106.85522461 C245.89570919 107.98745698 247.07638974 109.14670224 248.24609375 110.31640625 C250.18610364 110.51483836 250.18610364 110.51483836 252.37109375 110.50390625 C258.31920557 111.05589103 261.2160669 114.17443421 265.24609375 118.31640625 C265.91640625 118.96351562 266.58671875 119.610625 267.27734375 120.27734375 C271.21626565 124.11021776 274.86431928 128.12749158 278.4453125 132.29296875 C281.55607912 135.78836378 284.90432698 139.04377948 288.24609375 142.31640625 C288.90609375 142.97640625 289.56609375 143.63640625 290.24609375 144.31640625 C312.02609375 122.53640625 333.80609375 100.75640625 356.24609375 78.31640625 C354.4413188 74.70685635 353.12683909 72.96012554 350.33203125 70.20703125 C349.19121094 69.07587891 349.19121094 69.07587891 348.02734375 67.921875 C347.23328125 67.14457031 346.43921875 66.36726563 345.62109375 65.56640625 C344.81929688 64.77363281 344.0175 63.98085937 343.19140625 63.1640625 C341.21406529 61.21026132 339.23220466 59.26128522 337.24609375 57.31640625 C337.57609375 56.32640625 337.90609375 55.33640625 338.24609375 54.31640625 C340.6902771 53.2122345 340.6902771 53.2122345 343.98974609 52.17504883 C345.84096573 51.58346733 345.84096573 51.58346733 347.72958374 50.97993469 C349.09697088 50.55662745 350.4644563 50.13363759 351.83203125 49.7109375 C353.24597028 49.26455829 354.65959037 48.81716773 356.07290649 48.36882019 C359.82391456 47.18223045 363.57948649 46.01075023 367.33605957 44.84191895 C370.31536804 43.91226775 373.29132545 42.97217951 376.26713181 42.03138924 C394.53440034 36.25680063 412.85422628 30.68214361 431.24609375 25.31640625 C428.46417055 37.52599214 425.34671478 49.61740042 422.04296875 61.6953125 C421.55518617 63.4869863 421.06766269 65.27873066 420.5803833 67.07054138 C419.31384505 71.72513866 418.04385392 76.37878656 416.77307129 81.03222656 C415.47027151 85.8054066 414.17083619 90.57950235 412.87109375 95.35351562 C410.33266688 104.67536411 407.79058106 113.99621034 405.24609375 123.31640625 C401.82126668 121.69864508 399.58918853 119.89297381 396.91796875 117.18359375 C396.11875 116.37792969 395.31953125 115.57226562 394.49609375 114.7421875 C393.67109375 113.90042969 392.84609375 113.05867188 391.99609375 112.19140625 C390.73539062 110.91716797 390.73539062 110.91716797 389.44921875 109.6171875 C387.37693692 107.52135702 385.30946982 105.42099912 383.24609375 103.31640625 C378.95103612 104.97245512 376.08456333 108.21188931 372.91699219 111.41845703 C372.29217957 112.0429776 371.66736694 112.66749817 371.02362061 113.3109436 C368.96279306 115.37316275 366.90913722 117.44237215 364.85546875 119.51171875 C363.4267265 120.94419172 361.9975416 122.37622332 360.56793213 123.80783081 C356.80867358 127.57472109 353.05546018 131.34757918 349.3034668 135.1217041 C345.47286558 138.97277356 341.6365878 142.81817896 337.80078125 146.6640625 C330.27697997 154.20930559 322.75955173 161.76086436 315.24609375 169.31640625 C317.0201184 173.09561026 319.2568706 175.69458384 322.12109375 178.75390625 C322.59925537 179.26961182 323.07741699 179.78531738 323.57006836 180.31665039 C326.21721851 183.1686472 328.89003969 185.99556244 331.5703125 188.81640625 C332.11123535 189.39076416 332.6521582 189.96512207 333.20947266 190.55688477 C334.25359907 191.66493404 335.30381986 192.76728079 336.36083984 193.86303711 C339.14600944 196.82386069 341.19182104 199.35629439 342.24609375 203.31640625 C342.06046875 204.51265625 341.87484375 205.70890625 341.68359375 206.94140625 C341.51423844 210.49109346 342.32528045 211.41016331 344.6875 214.20703125 C346.67661074 216.20821303 348.7467322 218.10486279 350.83984375 219.99609375 C351.63390625 220.76179687 352.42796875 221.5275 353.24609375 222.31640625 C353.24609375 222.97640625 353.24609375 223.63640625 353.24609375 224.31640625 C353.84292969 224.45175781 354.43976563 224.58710938 355.0546875 224.7265625 C374.03491116 229.4363654 392.53276355 238.38574916 407.24609375 251.31640625 C408.06335938 251.99058594 408.880625 252.66476562 409.72265625 253.359375 C429.93651947 270.53802965 440.97638221 295.32271199 444.24609375 321.31640625 C446.00745266 355.7370035 440.1990773 387.1217511 425.24609375 418.31640625 C424.14033257 420.64953783 423.03704349 422.98381501 421.93530273 425.31884766 C421.24868594 426.76894956 420.55714464 428.21673482 419.85961914 429.66162109 C418.03019656 433.48228713 416.49458737 437.25564921 415.24609375 441.31640625 C415.93574219 441.40277344 416.62539063 441.48914063 417.3359375 441.578125 C427.85667108 443.15118393 434.77960731 446.73618072 441.58203125 455.015625 C447.11483619 462.66544216 447.3890139 471.05969763 446.24609375 480.31640625 C443.34733026 489.53298762 438.26080727 495.76899599 430.02734375 500.625 C417.71098181 506.25700728 399.70876452 504.7267884 387.24609375 500.31640625 C373.42802297 494.88663536 362.95751224 485.27627571 356.49609375 471.94140625 C353.22951781 464.35790841 352.20592416 457.53018883 352.24609375 449.31640625 C350.83440178 449.33238106 350.83440178 449.33238106 349.39419079 449.34867859 C336.44158259 449.44674034 323.52851451 448.93542265 310.58911133 448.3984375 C308.14630838 448.29961457 305.70349285 448.20110244 303.26066589 448.10287476 C298.03290097 447.89203168 292.80522302 447.67915866 287.57761574 447.46444702 C280.00448615 447.15345272 272.43118318 446.84685518 264.85782941 446.54137433 C252.54550079 446.04467638 240.23328021 445.54535446 227.92114258 445.04394531 C227.18677476 445.01403916 226.45240694 444.98413302 225.69578554 444.95332062 C222.7204282 444.83214674 219.74507138 444.71096014 216.76971515 444.58975881 C208.57313107 444.25587197 200.37653623 443.92225003 192.17993164 443.58886719 C191.44556469 443.55899723 190.71119774 443.52912728 189.95457724 443.49835217 C177.67985695 442.99915943 165.40504679 442.50220792 153.13017577 442.0067358 C145.58137448 441.7019147 138.03266183 441.39504466 130.48405471 441.08545184 C124.69578509 440.84819082 118.90740202 440.6137992 113.11897469 440.38042068 C110.75595349 440.28466564 108.39297113 440.1879463 106.03003311 440.09016037 C94.43013632 439.61059217 82.85836786 439.14678002 71.24609375 439.31640625 C71.63917725 440.19844727 72.03226074 441.08048828 72.43725586 441.98925781 C76.26137883 450.57021666 76.26137883 450.57021666 76.203125 453.4140625 C74.77772613 456.24740637 72.74606523 457.91487326 70.37109375 460.00390625 C69.8800415 460.43888428 69.38898926 460.8738623 68.88305664 461.32202148 C64.66629007 465.02790927 60.31266886 468.56356172 55.9453125 472.08984375 C51.58296938 475.68830334 47.43144428 479.51542464 43.24609375 483.31640625 C36.57942708 489.31640625 36.57942708 489.31640625 34.24609375 489.31640625 C33.80910156 487.78717529 33.80910156 487.78717529 33.36328125 486.22705078 C32.27157426 482.44074355 31.13557855 478.6689535 29.98583984 474.89990234 C29.49483925 473.26809508 29.01586428 471.63261836 28.54931641 469.99365234 C27.87555419 467.63476934 27.15930721 465.29256382 26.43359375 462.94921875 C26.23427246 462.21583282 26.03495117 461.4824469 25.82958984 460.72683716 C25.14608087 458.36592427 25.14608087 458.36592427 23.24609375 455.31640625 C21.18478038 454.38319142 19.36053233 453.96352329 17.12435913 453.64387512 C14.36709479 453.16315591 12.86820723 451.77412618 10.87109375 449.87890625 C10.22398438 449.28207031 9.576875 448.68523437 8.91015625 448.0703125 C6.24988664 445.26641331 5.10981679 443.10863904 4.55712891 439.36914062 C3.70359469 435.76987763 3.40967049 435.4331688 0.17333984 433.12304688 C-1.1146428 432.54248995 -2.41727421 431.99368 -3.73046875 431.47265625 C-4.41571625 431.1732312 -5.10096375 430.87380615 -5.80697632 430.56530762 C-7.98665533 429.62049127 -10.1812081 428.71839625 -12.37890625 427.81640625 C-13.86445754 427.18112908 -15.34885033 426.54313551 -16.83203125 425.90234375 C-20.45999466 424.34192271 -24.101863 422.81955506 -27.75390625 421.31640625 C-27.75390625 418.31640625 -27.75390625 418.31640625 -26.48803711 416.72583008 C-25.90417236 416.16404053 -25.32030762 415.60225098 -24.71875 415.0234375 C-24.07760254 414.39711426 -23.43645508 413.77079102 -22.77587891 413.12548828 C-21.74406494 412.13718018 -21.74406494 412.13718018 -20.69140625 411.12890625 C-19.30025434 409.77009918 -17.91090527 408.4094437 -16.5234375 407.046875 C-15.86166504 406.3976709 -15.19989258 405.7484668 -14.51806641 405.07958984 C-11.99303946 402.55596065 -9.67665826 399.88873676 -7.37890625 397.16015625 C-4.60623212 394.01423753 -1.57855911 391.12208547 1.42578125 388.19921875 C3.30993273 386.43887286 3.30993273 386.43887286 4.24609375 384.31640625 C5.58105987 384.5790732 6.9139808 384.85213278 8.24609375 385.12890625 C9.35984375 385.35513672 9.35984375 385.35513672 10.49609375 385.5859375 C12.88843343 386.22140273 15.10788066 386.98443333 17.41796875 387.86206055 C18.49449707 388.26982979 18.49449707 388.26982979 19.59277344 388.68583679 C20.13836914 388.89392471 20.68396484 389.10201263 21.24609375 389.31640625 C19.98207515 353.3093852 18.57007194 317.31095483 17.02401495 281.31499481 C16.74765175 274.86972592 16.47355385 268.42436068 16.19924927 261.97900391 C15.74140002 251.2265204 15.28260094 240.47407795 14.82275391 229.72167969 C14.79397876 229.04883336 14.76520362 228.37598703 14.7355565 227.68275142 C14.58955445 224.26890308 14.44353777 220.85505537 14.29751587 217.44120789 C14.00113367 210.51191662 13.70487057 203.58262026 13.40869141 196.65332031 C13.3793469 195.96679697 13.35000239 195.28027363 13.31976865 194.57294655 C12.83049391 183.12532043 12.34239918 171.67764435 11.85508263 160.22993469 C11.5302921 152.60232564 11.20403775 144.97478107 10.87662101 137.34728432 C10.6746647 132.63581697 10.47392809 127.92429823 10.27352142 123.21276474 C10.18051665 121.03223334 10.08699951 118.85172373 9.99293137 116.67123795 C9.86467663 113.6967347 9.7382519 110.72215902 9.61227417 107.74755859 C9.57472893 106.88720127 9.53718368 106.02684395 9.4985007 105.14041519 C9.30525231 100.52726011 9.20978761 95.93362442 9.24609375 91.31640625 C7.63734375 91.40921875 7.63734375 91.40921875 5.99609375 91.50390625 C-7.86047644 91.43072014 -20.70431589 85.10724029 -30.56640625 75.671875 C-33.83479129 72.15252468 -36.41934205 68.50683851 -38.75390625 64.31640625 C-39.32044922 63.32447266 -39.32044922 63.32447266 -39.8984375 62.3125 C-46.65637814 48.9737932 -48.00088723 30.5459817 -43.75390625 16.31640625 C-39.93223095 8.14304228 -33.44055013 1.55416879 -24.984375 -1.7734375 C-16.76310362 -4.08970864 -7.74524512 -3.65005805 0 0 Z M60.4621582 77.69628906 C47.00525818 83.55563502 33.91904885 88.45449718 19.24609375 90.31640625 C18.33177798 93.39162721 18.17157529 96.00311245 18.30766106 99.20203114 C18.34685406 100.19002919 18.38604706 101.17802724 18.42642772 102.19596463 C18.47534982 103.27911079 18.52427192 104.36225694 18.57467651 105.47822571 C18.62211915 106.63078879 18.66956179 107.78335187 18.71844208 108.97084111 C18.85135975 112.1710898 18.98952045 115.37106296 19.12988496 118.57099211 C19.28000749 122.02232508 19.42340274 125.47393829 19.56762695 128.92552185 C19.85137343 135.69071516 20.14132872 142.45562892 20.43332444 149.22047064 C20.77347144 157.10667306 21.10732691 164.99313802 21.44087936 172.87962165 C22.03676579 186.96397729 22.63813236 201.04809358 23.24267578 215.13208008 C23.82835642 228.77678322 24.41060161 242.42162679 24.98876953 256.06665039 C25.04208143 257.32481259 25.04208143 257.32481259 25.09647034 258.60839222 C25.16807377 260.29829719 25.23967672 261.98820219 25.31127919 263.67810721 C25.34660696 264.51187575 25.38193474 265.34564429 25.41833305 266.20467854 C25.45357399 267.03643137 25.48881492 267.8681842 25.52512377 268.72514166 C26.07708166 281.74956397 26.63186566 294.77386611 27.1870745 307.79815019 C27.35446459 311.72521168 27.52170654 315.65227938 27.68861914 319.5793612 C28.03976604 327.84103328 28.39185422 336.10266282 28.74711667 344.36415908 C28.89392798 347.77858286 29.04021276 351.19302669 29.18492508 354.60754013 C29.43710644 360.5453767 29.69650839 366.48245706 29.98272324 372.41875648 C30.1554509 376.03095257 30.28072692 379.63542739 30.33359146 383.2512722 C30.35352224 383.96191076 30.37345303 384.67254933 30.39398777 385.40472239 C30.44289221 387.17484999 30.46534056 388.94565984 30.48468208 390.71635723 C31.03958762 393.60428792 31.03958762 393.60428792 34.04597282 395.31363392 C37.06017313 396.61762114 37.06017313 396.61762114 39.23573959 395.57406026 C41.30951613 394.27672995 42.88469854 392.92625023 44.61188126 391.1967144 C45.58524473 390.22932408 45.58524473 390.22932408 46.5782721 389.24239051 C47.28255522 388.53228171 47.98683835 387.82217291 48.71246338 387.09054565 C49.46725471 386.33746317 50.22204605 385.58438069 50.99970984 384.80847752 C53.53486091 382.27662817 56.06278432 379.73768276 58.59082031 377.19873047 C60.40376565 375.38522117 62.21715115 373.57215179 64.03094482 371.75949097 C67.93863358 367.85225807 71.84323144 363.94197688 75.74506378 360.02889633 C81.38646306 354.37124462 87.03337533 348.71912204 92.68164942 343.06833471 C101.84539391 333.90021272 111.00466295 324.72763306 120.16113281 315.55224609 C129.05592503 306.63909651 137.95281491 297.72804942 146.85253906 288.81982422 C147.40109535 288.27074248 147.94965165 287.72166074 148.51483086 287.15594016 C151.26678301 284.40137793 154.01877652 281.64685701 156.77079058 278.89235663 C179.60230552 256.04010746 202.42656312 233.18062281 225.24609375 210.31640625 C221.79190457 203.16328663 215.81741175 197.83955619 210.21875 192.31640625 C207.06681247 189.12077849 204.16962203 185.71952456 201.24609375 182.31640625 C199.37535 180.20295123 197.50353585 178.09047785 195.62890625 175.98046875 C193.2515644 173.11959974 193.20697269 171.32271515 193.140625 167.69921875 C192.55295552 161.34782389 189.44663712 158.40470586 184.93359375 154.19140625 C173.36070345 143.06997979 173.36070345 143.06997979 173.19482422 136.18994141 C173.4968479 133.5038453 174.06430584 130.92777183 174.83447266 128.33764648 C175.30142939 126.04468395 175.1100761 124.51252075 174.64453125 122.2265625 C174.40790771 121.05963867 174.40790771 121.05963867 174.16650391 119.86914062 C173.89652588 118.63647461 173.89652588 118.63647461 173.62109375 117.37890625 C173.43724121 116.53005859 173.25338867 115.68121094 173.06396484 114.80664062 C171.45116412 107.67522723 169.28282659 100.97935537 166.24609375 94.31640625 C165.61960938 92.90488281 165.61960938 92.90488281 164.98046875 91.46484375 C159.53500679 80.35484952 150.84442745 71.75137598 139.24609375 67.31640625 C131.52675921 64.70594804 124.37348838 63.79849387 116.24609375 63.87890625 C115.1588501 63.88647949 114.07160645 63.89405273 112.95141602 63.90185547 C93.99068015 64.28315761 77.63341648 70.21326507 60.4621582 77.69628906 Z M247.92925781 235.50904369 C247.36461368 236.07406754 246.79996955 236.6390914 246.21821499 237.22123718 C245.24336105 238.19310455 245.24336105 238.19310455 244.24881309 239.1846056 C243.16760778 240.27018017 243.16760778 240.27018017 242.06455994 241.37768555 C241.30416477 242.13722629 240.54376961 242.89676702 239.76033217 243.67932415 C237.19061646 246.24738124 234.62451178 248.81901734 232.05834961 251.390625 C230.22592776 253.22332867 228.39328618 255.05581267 226.56044006 256.88809204 C222.60329662 260.84470998 218.64799483 264.80316136 214.69392204 268.7628479 C208.97692478 274.48795655 203.25718306 280.21031673 197.53675789 285.93200004 C188.25684286 295.21410616 178.9791653 304.49844536 169.70288086 313.78417969 C160.68940089 322.8068323 151.67487596 331.82843878 142.65893555 340.84863281 C142.10361709 341.40421399 141.54829864 341.95979517 140.97615235 342.53221214 C138.19040292 345.31926657 135.40463284 348.10630036 132.6188525 350.8933239 C109.4913979 374.03115289 86.36760583 397.17263891 63.24609375 420.31640625 C64.23609375 423.28640625 65.22609375 426.25640625 66.24609375 429.31640625 C100.93066938 430.72077019 135.61535219 432.1224514 170.30018653 433.52041122 C174.39926252 433.68562537 178.4983376 433.85086229 182.59741211 434.01611328 C183.41343052 434.04901004 184.22944893 434.08190681 185.07019518 434.11580044 C198.26611897 434.64783194 211.46196762 435.18170568 224.65778919 435.71626574 C238.20775275 436.26513073 251.75779567 436.81200326 265.3079136 437.35704374 C273.66245514 437.69315953 282.01693166 438.03081117 290.37133048 438.3704561 C296.10784822 438.60352263 301.84444224 438.83464584 307.58109864 439.06427395 C310.88597471 439.19661869 314.190799 439.33007738 317.49555969 439.46527672 C321.09050879 439.61221221 324.68557438 439.75589314 328.28068542 439.89880371 C329.30893832 439.94160414 330.33719121 439.98440457 331.39660329 440.02850199 C338.68236861 440.31327353 345.9551946 440.3605813 353.24609375 440.31640625 C353.54 438.60710937 353.54 438.60710937 353.83984375 436.86328125 C356.89784465 420.24494649 363.08409504 405.64417507 370.43359375 390.50390625 C381.09601417 368.53212752 388.53755364 342.74951363 381.4296875 318.53515625 C375.91454954 303.58197884 365.64940897 294.71251766 351.51953125 288.14453125 C342.43698923 284.13838479 332.24786636 280.31640625 322.24609375 280.31640625 C320.21464734 281.2508716 318.21075788 282.24865401 316.24609375 283.31640625 C310.53587872 284.04316089 306.7898637 282.66817871 302.24609375 279.31640625 C298.73649267 275.83002686 295.55522458 272.04451255 292.3828125 268.25195312 C287.92553063 263.18986026 287.92553063 263.18986026 281.61328125 261.546875 C280.86385254 261.52834473 280.11442383 261.50981445 279.34228516 261.49072266 C273.55472834 261.00943736 269.60947139 255.81625147 265.99609375 251.75390625 C265.2992749 250.97805176 265.2992749 250.97805176 264.58837891 250.18652344 C263.13543495 248.56799202 261.69079128 246.9422982 260.24609375 245.31640625 C258.81990234 243.72374635 257.39086506 242.1337845 255.95800781 240.54711914 C254.68308361 239.13506376 253.41366298 237.71804508 252.14453125 236.30078125 C251.51804687 235.6459375 250.8915625 234.99109375 250.24609375 234.31640625 C249.07352009 234.20452473 249.07352009 234.20452473 247.92925781 235.50904369 Z " fill="#250F0F" transform="translate(55.75390625,5.68359375)"/>
<path d="M0 0 C1.05790237 0.00273422 1.05790237 0.00273422 2.13717651 0.00552368 C29.03175204 0.12252456 54.12574235 6.87145252 74.3125 25.3125 C75.09109375 26.00988281 75.8696875 26.70726563 76.671875 27.42578125 C89.05185294 39.10138114 99.98280314 56.76280347 104.3125 73.3125 C104.3125 74.6325 104.3125 75.9525 104.3125 77.3125 C102.46927796 78.47304721 100.61690362 79.6210216 98.7265625 80.703125 C94.91236714 83.24592191 91.9376813 86.54125593 88.76171875 89.82421875 C86.03200785 92.59746571 83.15886695 95.11922085 80.19921875 97.640625 C77.5748307 99.96616969 75.16526371 102.47992444 72.7578125 105.02734375 C71.3125 106.3125 71.3125 106.3125 69.3125 106.3125 C68.98378906 104.73275391 68.98378906 104.73275391 68.6484375 103.12109375 C64.44662056 83.69704414 57.41192532 63.23276489 40.1875 51.625 C21.47707355 40.37815494 -2.64498107 39.4506036 -23.6875 44.3125 C-35.40069319 47.25676383 -46.57910656 50.94110451 -57.39697266 56.31738281 C-62.79165948 58.97398476 -68.27373398 61.1689648 -73.9375 63.1875 C-74.71697998 63.47367188 -75.49645996 63.75984375 -76.29956055 64.0546875 C-82.96593843 66.36834957 -89.70519854 67.39779397 -96.6875 68.3125 C-96.85852725 63.93765941 -97.02348883 59.56260879 -97.1875 55.1875 C-97.23519531 53.96933594 -97.28289062 52.75117187 -97.33203125 51.49609375 C-97.6432067 43.09435664 -97.74569087 34.71946391 -97.6875 26.3125 C-97.14037354 26.14234375 -96.59324707 25.9721875 -96.02954102 25.796875 C-86.5278319 22.8125228 -77.21976271 19.80394366 -68.3125 15.3125 C-55.6332572 8.97518924 -41.56724627 5.06770957 -27.6875 2.3125 C-26.36335083 2.03780884 -26.36335083 2.03780884 -25.01245117 1.75756836 C-16.67656288 0.17888119 -8.4652837 -0.04540193 0 0 Z " fill="#E86761" transform="translate(169.6875,18.6875)"/>
<path d="M0 0 C22.23128536 3.80862506 44.3478053 21.52751764 57.15673828 39.54638672 C74.5541938 65.23466169 77.98894485 98.21885715 72.5625 128.375 C68.94156016 146.39736612 62.64690972 163.96348866 53.96289062 180.13769531 C52.20115724 183.54502348 50.66272133 187.0497349 49.125 190.5625 C48.83866699 191.20598389 48.55233398 191.84946777 48.25732422 192.51245117 C46.46975401 196.62128287 45.14500037 200.68123646 44 205 C30.29209146 205.12661845 16.68088132 204.88467593 3 204 C2.79083386 198.78434113 3.43733099 194.27884275 4.9375 189.3125 C5.15277344 188.5898999 5.36804688 187.8672998 5.58984375 187.12280273 C8.78618056 176.91819346 13.32926362 167.07922598 18.24731445 157.59448242 C21.51365611 151.29434809 23.96552839 144.9227161 26.1875 138.1875 C26.52974609 137.19685547 26.87199219 136.20621094 27.22460938 135.18554688 C33.36301358 116.77033425 36.58258011 91.09682188 28 73 C27.649375 72.20464844 27.29875 71.40929687 26.9375 70.58984375 C19.28287409 55.09454199 3.97823062 45.15174857 -11.921875 39.5859375 C-14.49011067 38.7177578 -17.06639878 37.89388051 -19.65234375 37.078125 C-22.49737759 36.16187139 -25.24341177 35.15075789 -28 34 C-22.37825421 27.25390505 -16.42284804 21.03031217 -9.75 15.3125 C-4.36724647 10.63689253 -1.62864534 6.9217427 0 0 Z " fill="#E86761" transform="translate(416,243)"/>
<path d="M0 0 C3.18086518 1.50946511 5.29869906 3.07941825 7.75 5.625 C8.36359375 6.25664063 8.9771875 6.88828125 9.609375 7.5390625 C10.06828125 8.02117187 10.5271875 8.50328125 11 9 C5.18806969 16.11633317 -1.36240179 22.49541448 -7.86082458 28.97434998 C-9.18529026 30.29853545 -10.50953411 31.62294283 -11.83357579 32.94755226 C-15.46417145 36.57844292 -19.09786963 40.20621463 -22.7320801 43.83348668 C-26.65421856 47.74924307 -30.57344716 51.66790995 -34.49301147 55.58624268 C-41.28321209 62.37355811 -48.07518586 69.15909494 -54.86831474 75.94347954 C-64.69813497 85.76073973 -74.52471025 95.58124285 -84.35040272 105.40263415 C-100.30321884 121.34838426 -116.25789475 137.29227186 -132.21411133 153.23461914 C-132.92995914 153.94984648 -132.92995914 153.94984648 -133.66026852 154.67952286 C-141.40407291 162.41661092 -149.14797283 170.15360338 -156.89188528 177.89058328 C-164.14647471 185.13868007 -171.40102947 192.38681156 -178.65551758 199.63500977 C-179.13233893 200.11141652 -179.60916027 200.58782328 -180.10043075 201.07866661 C-196.47739269 217.44141467 -212.85238467 233.80613264 -229.22582394 250.17240578 C-239.02671462 259.96881603 -248.82938057 269.76344345 -258.6343422 279.55577923 C-265.3522282 286.26523813 -272.06834464 292.97646486 -278.78307252 299.68908434 C-282.65703098 303.56169815 -286.5318153 307.43347633 -290.40880394 311.30305672 C-293.95957926 314.84707277 -297.50802972 318.39339958 -301.0546676 321.94155598 C-302.33636266 323.22298012 -303.61890536 324.50355713 -304.90239161 325.7831872 C-313.49773319 334.33729169 -313.49773319 334.33729169 -321.59118515 343.36345631 C-324.15919361 346.34657226 -326.95829511 349.10300126 -329.75 351.875 C-330.59498047 352.72578125 -330.59498047 352.72578125 -331.45703125 353.59375 C-337.71388842 359.83581554 -337.71388842 359.83581554 -341.9375 360.375 C-345 360 -345 360 -347.375 358.4375 C-349.64630554 355.03054169 -349.47804596 353.04534208 -349 349 C-347.24518613 346.56343712 -345.67625656 344.74507485 -343.54953766 342.68820286 C-342.96029524 342.09088353 -342.37105283 341.49356421 -341.76395458 340.87814429 C-339.77580129 338.87139224 -337.76356289 336.89068154 -335.75061035 334.90882874 C-334.30955762 333.46472471 -332.87004357 332.01908389 -331.43194437 330.57203859 C-327.46842402 326.59282868 -323.48334354 322.6358367 -319.49449658 318.68203723 C-315.19961199 314.41731925 -310.92491125 310.13245595 -306.64775085 305.84997559 C-299.23211351 298.43066381 -291.8038541 291.02416453 -284.36662292 283.62651253 C-276.56586105 275.8671584 -268.77237017 268.10061906 -260.98847961 260.32433891 C-260.50464459 259.84098506 -260.02080956 259.35763122 -259.52231287 258.85963028 C-257.06523443 256.40492015 -254.60828527 253.95008068 -252.15138584 251.49519139 C-234.74526581 234.1037774 -217.32296969 216.72865158 -199.89111328 199.36303711 C-182.95549218 182.49169813 -166.02723266 165.61302824 -149.10888672 148.72436523 C-148.58746121 148.2038604 -148.06603569 147.68335557 -147.52880941 147.14707787 C-142.29248683 141.91998487 -137.05631356 136.69274231 -131.82024969 131.46539017 C-121.15361463 120.81650899 -110.48598313 110.16862626 -99.81774902 99.52134705 C-99.32723339 99.03179244 -98.83671776 98.54223784 -98.33133801 98.03784824 C-65.5709098 65.3418335 -32.78718966 32.66917629 0 0 Z " fill="#B54A55" transform="translate(420,90)"/>
<path d="M0 0 C6.32751305 2.44472095 10.60596125 9.00264293 14.93359375 14.02734375 C17.42289384 16.81643051 20.08675154 19.4096148 22.75 22.03125 C25.90804049 25.23863487 28.82475454 28.64418909 31.75 32.0625 C26.74744121 38.10515914 21.31822676 43.62348043 15.7578125 49.15234375 C14.80209752 50.10618954 13.84660612 51.06025941 12.8913269 52.01454163 C10.39805084 54.50403194 7.90178475 56.99050224 5.40484619 59.47631836 C2.84878491 62.02207994 0.29561495 64.57073777 -2.2578125 67.11914062 C-7.25241019 72.10307069 -12.25017799 77.08381048 -17.25 82.0625 C-18.37610812 81.10128393 -19.50165098 80.13940561 -20.62695312 79.17724609 C-21.25380005 78.64167084 -21.88064697 78.10609558 -22.52648926 77.55429077 C-27.58631348 73.17474215 -31.99311677 68.24907845 -36.34765625 63.18359375 C-39.20527688 59.99737608 -42.26461801 57.02590934 -45.33203125 54.04296875 C-47.57141143 51.73061487 -49.09043327 49.92017116 -49.6875 46.7109375 C-49.04844539 42.84237476 -47.06516423 41.35731608 -44.25 38.6875 C-43.74815186 38.20563232 -43.24630371 37.72376465 -42.72924805 37.22729492 C-39.29565876 33.95587931 -35.75188953 30.81665828 -32.14453125 27.73828125 C-29.38202151 25.29474171 -26.83273342 22.65432088 -24.24609375 20.02734375 C-22.32892823 18.14019256 -20.35424678 16.37564625 -18.3125 14.625 C-14.40753522 11.27568239 -10.81577727 7.66730813 -7.23046875 3.98046875 C-3.21243229 0.08923423 -3.21243229 0.08923423 0 0 Z " fill="#C54F57" transform="translate(307.25,125.9375)"/>
<path d="M0 0 C7.75681629 6.64869967 14.87124436 13.50102598 21.4921875 21.2734375 C22.93896277 23.03401865 22.93896277 23.03401865 24.6953125 24.3515625 C26 26 26 26 26.6875 28.66015625 C25.58772952 34.00279126 21.87807119 36.78849958 18 40.4375 C17.25621094 41.16259766 16.51242187 41.88769531 15.74609375 42.63476562 C11.51848873 46.72635205 7.1626931 50.64295014 2.71484375 54.49243164 C0.71944325 56.24664549 -1.15484008 58.08894151 -3 60 C-6.28033643 63.33199527 -9.69625067 66.42901078 -13.2578125 69.45703125 C-15.14858516 71.06496576 -15.14858516 71.06496576 -17.125 73.4375 C-19 75 -19 75 -21.65234375 75.53515625 C-26.71720098 74.72548829 -29.0313309 71.65472855 -32.4375 68 C-33.09838623 67.31389648 -33.75927246 66.62779297 -34.44018555 65.92089844 C-45.23662532 54.64506202 -45.23662532 54.64506202 -49 49 C-32.83 32.83 -16.66 16.66 0 0 Z " fill="#C54F57" transform="translate(361,183)"/>
<path d="M0 0 C4.70480803 3.45288487 8.14510617 7.72089406 9.8203125 13.3359375 C10.04898277 16.27943608 10.00960367 19.19846169 9.9453125 22.1484375 C9.93628906 22.93669922 9.92726562 23.72496094 9.91796875 24.53710938 C9.89453754 26.47018416 9.85867088 28.4031013 9.8203125 30.3359375 C10.4803125 30.3359375 11.1403125 30.3359375 11.8203125 30.3359375 C12.55122822 44.01533624 12.96267989 57.63703112 12.8203125 71.3359375 C1.00725896 71.65624806 -9.25893468 68.26549556 -18.1796875 60.3359375 C-28.29007699 50.04747853 -32.61506388 35.90987761 -32.54321289 21.7644043 C-32.37302469 14.79727763 -31.27571968 8.83548098 -26.53125 3.47265625 C-18.92206399 -3.48858597 -9.19088808 -5.24662032 0 0 Z " fill="#E76660" transform="translate(52.1796875,15.6640625)"/>
<path d="M0 0 C9.26001658 -0.06125378 18.49593196 0.11048388 27.75 0.4375 C29.65265625 0.49647461 29.65265625 0.49647461 31.59375 0.55664062 C32.79515625 0.59853516 33.9965625 0.64042969 35.234375 0.68359375 C36.86197754 0.73858032 36.86197754 0.73858032 38.52246094 0.79467773 C41 1 41 1 42 2 C44.35203598 2.16016386 46.70703279 2.27753239 49.0625 2.375 C57.60576081 2.88079804 63.07540923 3.55168691 68.9375 10.0625 C74.03065784 16.29262702 73.62770642 22.0962037 73 30 C71.38583654 35.44203681 67.47900364 38.80071169 63 42 C54.88755925 46.37887427 42.12571615 44.91354813 33.33984375 43.34765625 C21.86702767 39.82569822 11.37501704 32.98003108 5.53515625 22.328125 C2.01125814 14.93304607 -0.12803578 8.25248804 0 0 Z " fill="#E76660" transform="translate(418,455)"/>
<path d="M0 0 C-3.48481235 15.52583064 -7.28250994 30.947026 -11.86328125 46.1875 C-13.3286767 51.10236585 -14.68326943 56.0435264 -16 61 C-19 61 -19 61 -20.9172821 59.4569397 C-21.63898087 58.73461151 -22.36067963 58.01228333 -23.10424805 57.26806641 C-24.3351844 56.04647324 -24.3351844 56.04647324 -25.59098816 54.80020142 C-26.47232925 53.90965057 -27.35367035 53.01909973 -28.26171875 52.1015625 C-29.16751175 51.19626801 -30.07330475 50.29097351 -31.00654602 49.35824585 C-32.92359921 47.44110292 -34.83537465 45.51889241 -36.7434082 43.59277344 C-39.19312168 41.12035669 -41.65377072 38.65918228 -44.11822796 36.20147133 C-46.46296472 33.86087296 -48.79960227 31.51227056 -51.13671875 29.1640625 C-52.02413254 28.27756012 -52.91154633 27.39105774 -53.82585144 26.47769165 C-54.6370192 25.65699188 -55.44818695 24.83629211 -56.28393555 23.99072266 C-57.00324753 23.26680328 -57.72255951 22.54288391 -58.46366882 21.79702759 C-60 20 -60 20 -60 18 C-42.96780437 12.49526633 -25.93295675 7.0004871 -8.86816406 1.59741211 C-5.5968386 0.55128908 -3.53577496 0 0 0 Z " fill="#E76661" transform="translate(472,47)"/>
<path d="M0 0 C4.56143523 2.05652199 7.41258479 5.16099463 10.8125 8.75 C11.42287109 9.3584375 12.03324219 9.966875 12.66210938 10.59375 C15.33536589 13.41468359 16.88911928 15.06665239 17.35546875 18.9921875 C15.3350312 23.47557918 12.14808543 26.15316371 8.5 29.375 C6.95241893 30.77917013 5.40556583 32.18414291 3.859375 33.58984375 C2.65958008 34.67048096 2.65958008 34.67048096 1.43554688 35.77294922 C-0.99673534 37.99701481 -3.37146727 40.26891624 -5.734375 42.56640625 C-6.49169922 43.29875488 -7.24902344 44.03110352 -8.02929688 44.78564453 C-9.48455191 46.19578282 -10.93401125 47.61193258 -12.37695312 49.03466797 C-13.04146484 49.67162598 -13.70597656 50.30858398 -14.390625 50.96484375 C-14.96844727 51.5280835 -15.54626953 52.09132324 -16.14160156 52.67163086 C-18.43810163 54.31315173 -20.20146677 54.74535716 -23 55 C-27.20970395 52.45202129 -30.18370727 48.61360896 -33.3515625 44.90625 C-35.14182441 42.83599452 -37.02578518 40.89524622 -39 39 C-37.68729086 36.09778672 -36.28101018 34.03287708 -34.0234375 31.79296875 C-33.43900879 31.2098291 -32.85458008 30.62668945 -32.25244141 30.02587891 C-31.63288574 29.41921387 -31.01333008 28.81254883 -30.375 28.1875 C-29.74126465 27.56020996 -29.1075293 26.93291992 -28.45458984 26.28662109 C-24.68066561 22.57451696 -20.83433784 18.99516444 -16.79296875 15.57421875 C-14.046904 13.16318587 -11.52731094 10.53665448 -8.96484375 7.93359375 C-6.10767624 5.12186826 -3.07875348 2.5656279 0 0 Z " fill="#F07269" transform="translate(390,225)"/>
<path d="M0 0 C3.55061993 1.25621349 5.69741483 3.46214291 8.234375 6.1328125 C8.70294922 6.60267578 9.17152344 7.07253906 9.65429688 7.55664062 C12.81305154 10.79491639 15.27539708 14.13914169 17.671875 17.9453125 C15.17215468 20.29977628 12.67205985 22.65384202 10.171875 25.0078125 C9.41028076 25.72501465 8.64868652 26.4422168 7.86401367 27.18115234 C3.97847726 30.83874049 0.08963918 34.49266202 -3.80859375 38.13671875 C-4.51628906 38.79857178 -5.22398437 39.4604248 -5.953125 40.14233398 C-7.29214993 41.39402431 -8.63194909 42.64488709 -9.97265625 43.89477539 C-13.83503237 47.50615767 -17.60909943 51.18629741 -21.328125 54.9453125 C-25.4699455 53.29059002 -28.38485993 50.32815267 -31.515625 47.2578125 C-32.06154297 46.75314453 -32.60746094 46.24847656 -33.16992188 45.72851562 C-35.90143489 43.051159 -37.25651477 41.14091452 -38.59375 37.48828125 C-38.20467606 32.29872149 -35.63179447 30.31993899 -31.890625 26.9453125 C-31.24335449 26.33155762 -30.59608398 25.71780273 -29.92919922 25.08544922 C-26.08542835 21.4651198 -22.15601078 17.93429278 -18.125 14.5234375 C-16.05664436 12.70688168 -14.13492256 10.78115964 -12.203125 8.8203125 C-3.33907092 -0.07843455 -3.33907092 -0.07843455 0 0 Z " fill="#F07269" transform="translate(277.328125,105.0546875)"/>
<path d="M0 0 C3.59483837 3.26820786 4.94425036 7.01229872 6.75 11.4375 C7.07871094 12.20126953 7.40742187 12.96503906 7.74609375 13.75195312 C8.05160156 14.49251953 8.35710937 15.23308594 8.671875 15.99609375 C8.9512793 16.66825928 9.23068359 17.3404248 9.51855469 18.03295898 C10.10262613 20.41929955 9.86453121 21.71445094 9 24 C6.8828125 26.26171875 6.8828125 26.26171875 4.125 28.6875 C3.13886719 29.55503906 2.15273437 30.42257812 1.13671875 31.31640625 C0.09273364 32.21279008 -0.95285253 33.10731246 -2 34 C-2.5161084 34.4419873 -3.0322168 34.88397461 -3.56396484 35.33935547 C-12.5578863 43 -12.5578863 43 -15 43 C-16.03580329 40.10875777 -17.0538502 37.21320686 -18.0625 34.3125 C-18.35705078 33.49587891 -18.65160156 32.67925781 -18.95507812 31.83789062 C-19.22900391 31.04189453 -19.50292969 30.24589844 -19.78515625 29.42578125 C-20.17006226 28.33390503 -20.17006226 28.33390503 -20.56274414 27.2199707 C-21.11975262 24.39200973 -20.92676501 22.737977 -20 20 C-18.05053711 17.59643555 -18.05053711 17.59643555 -15.52734375 15.13671875 C-14.62822266 14.25048828 -13.72910156 13.36425781 -12.80273438 12.45117188 C-11.85720703 11.53916016 -10.91167969 10.62714844 -9.9375 9.6875 C-8.97760179 8.74767724 -8.01860671 7.80693111 -7.06054688 6.86523438 C-4.71576088 4.56757976 -2.36215473 2.2797724 0 0 Z " fill="#EF7269" transform="translate(110,434)"/>
<path d="M0 0 C1.53086148 0.48384741 3.05019361 1.00592135 4.5546875 1.56640625 C5.2242749 1.78385498 5.8938623 2.00130371 6.58374023 2.2253418 C8.44286415 2.83792942 10.2807336 3.51387957 12.1171875 4.19140625 C13.94443359 4.86042969 13.94443359 4.86042969 15.80859375 5.54296875 C17.16791016 6.04957031 17.16791016 6.04957031 18.5546875 6.56640625 C18.5546875 9.56640625 18.5546875 9.56640625 16.71875 11.74291992 C15.88085938 12.5651001 15.04296875 13.38728027 14.1796875 14.234375 C13.27734375 15.12705078 12.375 16.01972656 11.4453125 16.93945312 C10.4819302 17.87776782 9.51838642 18.81591675 8.5546875 19.75390625 C7.59046404 20.70308394 6.62691358 21.65294581 5.6640625 22.60351562 C3.30082004 24.93130944 0.93087268 27.25183758 -1.4453125 29.56640625 C-6.98493098 27.81419828 -12.25639576 25.86641944 -17.5078125 23.37890625 C-19.19583984 22.58419922 -19.19583984 22.58419922 -20.91796875 21.7734375 C-21.75199219 21.37511719 -22.58601563 20.97679687 -23.4453125 20.56640625 C-22.15560547 19.06787109 -22.15560547 19.06787109 -20.83984375 17.5390625 C-18.63241998 14.97182412 -16.47158318 12.37387668 -14.33203125 9.75 C-13.2671332 8.50001563 -12.2007223 7.25131855 -11.1328125 6.00390625 C-10.61525391 5.35099609 -10.09769531 4.69808594 -9.56445312 4.02539062 C-6.48983199 0.50993681 -4.74209685 -0.99183756 0 0 Z " fill="#ED7168" transform="translate(67.4453125,402.43359375)"/>
</svg>
